<svg width="251" height="49" viewBox="0 0 251 49" fill="none" xmlns="http://www.w3.org/2000/svg">
<path d="M12.016 36V14.048H15.696V23.136H23.248V14.048H26.928V36H23.248V26.4H15.696V36H12.016ZM36.7135 36.384C34.5802 36.384 32.9695 35.68 31.8815 34.272C30.7935 32.8427 30.2495 30.6133 30.2495 27.584C30.2495 24.5547 30.7935 22.336 31.8815 20.928C32.9695 19.4987 34.5802 18.784 36.7135 18.784C38.8682 18.784 40.4895 19.4987 41.5775 20.928C42.6655 22.336 43.2095 24.5547 43.2095 27.584C43.2095 30.6133 42.6655 32.8427 41.5775 34.272C40.4895 35.68 38.8682 36.384 36.7135 36.384ZM36.7135 33.472C37.7375 33.472 38.4735 33.024 38.9215 32.128C39.3908 31.232 39.6255 29.92 39.6255 28.192V26.976C39.6255 25.248 39.3908 23.936 38.9215 23.04C38.4735 22.144 37.7375 21.696 36.7135 21.696C35.6895 21.696 34.9428 22.144 34.4735 23.04C34.0255 23.936 33.8015 25.248 33.8015 26.976V28.192C33.8015 29.92 34.0255 31.232 34.4735 32.128C34.9428 33.024 35.6895 33.472 36.7135 33.472ZM50.1 36.352C49.1613 36.352 48.4253 36.1493 47.892 35.744C47.3587 35.3173 46.9853 34.784 46.772 34.144C46.5587 33.4827 46.452 32.7893 46.452 32.064V22.08H44.852V19.168H46.452L47.028 14.464H49.876V19.168H52.244V22.08H49.876V32.032C49.876 32.992 50.3453 33.472 51.284 33.472H52.244V35.968C51.988 36.0533 51.6467 36.1387 51.22 36.224C50.8147 36.3093 50.4413 36.352 50.1 36.352ZM60.366 36.384C58.2327 36.384 56.6113 35.68 55.502 34.272C54.414 32.864 53.87 30.6347 53.87 27.584C53.87 24.5547 54.414 22.336 55.502 20.928C56.6113 19.4987 58.2007 18.784 60.27 18.784C62.2327 18.784 63.7047 19.4667 64.686 20.832C65.6887 22.176 66.19 24.32 66.19 27.264V28.48H57.422C57.4433 30.1227 57.678 31.3813 58.126 32.256C58.5953 33.1093 59.3527 33.536 60.398 33.536C61.1233 33.536 61.6993 33.2373 62.126 32.64C62.574 32.0213 62.798 31.1787 62.798 30.112H66.19C66.19 32.1813 65.6353 33.7493 64.526 34.816C63.438 35.8613 62.0513 36.384 60.366 36.384ZM57.454 25.856H62.574C62.574 24.512 62.382 23.4773 61.998 22.752C61.6353 22.0053 61.0593 21.632 60.27 21.632C59.3527 21.632 58.67 21.9947 58.222 22.72C57.7953 23.4453 57.5393 24.4907 57.454 25.856ZM69.0398 36V12.864H72.4638V36H69.0398ZM83.3903 36V14.048H92.4463C93.5769 14.048 94.5796 14.2827 95.4543 14.752C96.3503 15.2 97.0436 15.8293 97.5343 16.64C98.0463 17.4293 98.3022 18.368 98.3022 19.456C98.3022 20.7147 97.9716 21.7813 97.3103 22.656C96.6703 23.5307 95.8809 24.1387 94.9423 24.48V24.608C96.0303 24.9493 96.9476 25.6107 97.6943 26.592C98.4409 27.552 98.8143 28.736 98.8143 30.144C98.8143 31.3813 98.5156 32.4373 97.9183 33.312C97.3423 34.1867 96.5743 34.8587 95.6143 35.328C94.6543 35.776 93.5983 36 92.4463 36H83.3903ZM87.0383 32.736H91.8703C92.7876 32.736 93.5449 32.48 94.1423 31.968C94.7609 31.4347 95.0703 30.6667 95.0703 29.664C95.0703 28.768 94.7823 28 94.2063 27.36C93.6303 26.72 92.7876 26.4 91.6783 26.4H87.0383V32.736ZM87.0383 23.136H91.4223C92.4249 23.136 93.1929 22.8373 93.7263 22.24C94.2809 21.6427 94.5583 20.9493 94.5583 20.16C94.5583 19.2213 94.2809 18.5173 93.7263 18.048C93.1929 17.5573 92.4889 17.312 91.6143 17.312H87.0383V23.136ZM107.491 36.384C105.358 36.384 103.736 35.68 102.627 34.272C101.539 32.864 100.995 30.6347 100.995 27.584C100.995 24.5547 101.539 22.336 102.627 20.928C103.736 19.4987 105.326 18.784 107.395 18.784C109.358 18.784 110.83 19.4667 111.811 20.832C112.814 22.176 113.315 24.32 113.315 27.264V28.48H104.547C104.568 30.1227 104.803 31.3813 105.251 32.256C105.72 33.1093 106.478 33.536 107.523 33.536C108.248 33.536 108.824 33.2373 109.251 32.64C109.699 32.0213 109.923 31.1787 109.923 30.112H113.315C113.315 32.1813 112.76 33.7493 111.651 34.816C110.563 35.8613 109.176 36.384 107.491 36.384ZM104.579 25.856H109.699C109.699 24.512 109.507 23.4773 109.123 22.752C108.76 22.0053 108.184 21.632 107.395 21.632C106.478 21.632 105.795 21.9947 105.347 22.72C104.92 23.4453 104.664 24.4907 104.579 25.856ZM116.293 36V19.168H119.077L119.493 21.536H119.685C119.898 20.8533 120.218 20.224 120.645 19.648C121.093 19.072 121.733 18.784 122.565 18.784C123.013 18.784 123.365 18.8267 123.621 18.912C123.898 18.9973 124.037 19.04 124.037 19.04V22.4H122.853C122.298 22.4 121.775 22.528 121.285 22.784C120.815 23.0187 120.431 23.4133 120.133 23.968C119.855 24.5227 119.717 25.3013 119.717 26.304V36H116.293ZM125.852 36V12.864H129.276V36H125.852ZM132.89 36V19.168H136.282V36H132.89ZM132.826 16.32V12.864H136.314V16.32H132.826ZM140.043 36V19.168H142.827L143.179 21.216H143.371C143.819 20.4907 144.395 19.904 145.099 19.456C145.803 19.008 146.624 18.784 147.563 18.784C148.864 18.784 149.92 19.1787 150.731 19.968C151.541 20.7573 151.947 22.1333 151.947 24.096V36H148.523V24.832C148.523 23.7227 148.32 22.9547 147.915 22.528C147.509 22.1013 146.955 21.888 146.251 21.888C145.483 21.888 144.821 22.24 144.267 22.944C143.733 23.648 143.467 24.5547 143.467 25.664V36H140.043ZM155.445 40.64L157.045 36H155.445V31.936H159.413V35.648L157.525 40.64H155.445ZM170.328 36V14.048H179.384C180.514 14.048 181.517 14.2827 182.392 14.752C183.288 15.2 183.981 15.8293 184.472 16.64C184.984 17.4293 185.24 18.368 185.24 19.456C185.24 20.7147 184.909 21.7813 184.248 22.656C183.608 23.5307 182.818 24.1387 181.88 24.48V24.608C182.968 24.9493 183.885 25.6107 184.632 26.592C185.378 27.552 185.752 28.736 185.752 30.144C185.752 31.3813 185.453 32.4373 184.856 33.312C184.28 34.1867 183.512 34.8587 182.552 35.328C181.592 35.776 180.536 36 179.384 36H170.328ZM173.976 32.736H178.808C179.725 32.736 180.482 32.48 181.08 31.968C181.698 31.4347 182.008 30.6667 182.008 29.664C182.008 28.768 181.72 28 181.144 27.36C180.568 26.72 179.725 26.4 178.616 26.4H173.976V32.736ZM173.976 23.136H178.36C179.362 23.136 180.13 22.8373 180.664 22.24C181.218 21.6427 181.496 20.9493 181.496 20.16C181.496 19.2213 181.218 18.5173 180.664 18.048C180.13 17.5573 179.426 17.312 178.552 17.312H173.976V23.136ZM194.429 36.384C192.295 36.384 190.674 35.68 189.565 34.272C188.477 32.864 187.933 30.6347 187.933 27.584C187.933 24.5547 188.477 22.336 189.565 20.928C190.674 19.4987 192.263 18.784 194.333 18.784C196.295 18.784 197.767 19.4667 198.749 20.832C199.751 22.176 200.253 24.32 200.253 27.264V28.48H191.485C191.506 30.1227 191.741 31.3813 192.189 32.256C192.658 33.1093 193.415 33.536 194.461 33.536C195.186 33.536 195.762 33.2373 196.189 32.64C196.637 32.0213 196.861 31.1787 196.861 30.112H200.253C200.253 32.1813 199.698 33.7493 198.589 34.816C197.501 35.8613 196.114 36.384 194.429 36.384ZM191.516 25.856H196.637C196.637 24.512 196.445 23.4773 196.061 22.752C195.698 22.0053 195.122 21.632 194.333 21.632C193.415 21.632 192.733 21.9947 192.285 22.72C191.858 23.4453 191.602 24.4907 191.516 25.856ZM203.23 36V19.168H206.014L206.43 21.536H206.622C206.836 20.8533 207.156 20.224 207.582 19.648C208.03 19.072 208.67 18.784 209.502 18.784C209.95 18.784 210.302 18.8267 210.558 18.912C210.836 18.9973 210.974 19.04 210.974 19.04V22.4H209.79C209.236 22.4 208.713 22.528 208.222 22.784C207.753 23.0187 207.369 23.4133 207.07 23.968C206.793 24.5227 206.654 25.3013 206.654 26.304V36H203.23ZM212.79 36V12.864H216.214V36H212.79ZM219.827 36V19.168H223.219V36H219.827ZM219.763 16.32V12.864H223.251V16.32H219.763ZM226.98 36V19.168H229.764L230.116 21.216H230.308C230.756 20.4907 231.332 19.904 232.036 19.456C232.74 19.008 233.562 18.784 234.5 18.784C235.802 18.784 236.858 19.1787 237.668 19.968C238.479 20.7573 238.884 22.1333 238.884 24.096V36H235.46V24.832C235.46 23.7227 235.258 22.9547 234.852 22.528C234.447 22.1013 233.892 21.888 233.188 21.888C232.42 21.888 231.759 22.24 231.204 22.944C230.671 23.648 230.404 24.5547 230.404 25.664V36H226.98Z" fill="black"/>
<rect x="0.5" y="0.5" width="250" height="48" stroke="black"/>
</svg>
